<?xml version="1.0" encoding="UTF-8"?>
<svg version="1.1" xmlns="http://www.w3.org/2000/svg" width="689" height="155">
<path d="M0 0 C6.93 0 13.86 0 21 0 C21.33 11.22 21.66 22.44 22 34 C24.64 32.68 27.28 31.36 30 30 C40.64003143 27.33999214 53.26176452 27.72102387 63 33 C73.00830571 39.01923012 80.19569931 48.12737651 83.71484375 59.26171875 C84.8013525 63.9329133 85.09391195 68.53331549 85.28295898 73.30688477 C85.69448862 83.39208969 87.27968546 90.8132492 94.28515625 98.49609375 C100.33094589 103.79820995 107.32300689 105.31409082 115.15234375 105.2109375 C122.4663322 104.66916058 128.15553396 101.46917821 133 96 C137.20377303 89.74322154 139.00572648 84.74333062 139.2902832 77.21264648 C139.89680687 61.37136702 143.07088413 48.10641823 155 37 C165.71685148 28.94485019 176.75347944 26.80564159 190 28 C201.40546041 30.13852383 210.20673178 35.02584596 217.375 44.1875 C224.02065184 54.08213718 225.33190067 63.48952925 225.80859375 75.07421875 C226.30022265 85.15762782 229.25105624 92.91763056 236.875 99.875 C243.8833541 104.64068078 250.53408038 106.08383039 259 105 C265.91102117 103.01321493 270.44363532 99.50316641 274.6875 93.6875 C275.120625 93.130625 275.55375 92.57375 276 92 C276.66 92 277.32 92 278 92 C278 101.24 278 110.48 278 120 C264.06504629 126.96747686 253.37504827 128.95019025 238.26953125 125.09765625 C225.2178038 120.71589351 215.65111699 112.02316903 209.2890625 99.96875 C205.3316252 90.85465197 204.3853742 82.69463037 204.00390625 72.79492188 C203.50817132 64.47817744 201.29883778 58.81990385 195.125 53.125 C189.73192933 49.45771194 184.72550978 48.39719002 178.33984375 49.3359375 C172.54290854 50.98114449 167.60073117 54.43099544 164.5 59.625 C162.45722087 64.22125305 161.87115698 67.7525412 161.79467773 72.77832031 C161.77473251 73.9392218 161.75478729 75.10012329 161.73423767 76.29620361 C161.71752518 77.54423767 161.70081268 78.79227173 161.68359375 80.078125 C161.6524221 82.00069122 161.6524221 82.00069122 161.62062073 83.96209717 C161.56555253 87.36176272 161.51607636 90.76148738 161.46777344 94.16125488 C161.41744668 97.63359814 161.36181907 101.10585605 161.30664062 104.578125 C161.19924575 111.38534416 161.09824987 118.19264277 161 125 C154.07 125 147.14 125 140 125 C140 123.02 140 121.04 140 119 C139.24976563 119.40992187 138.49953125 119.81984375 137.7265625 120.2421875 C124.59444699 127.15556821 112.35301343 129.00884376 97.91015625 124.96484375 C84.41191354 120.48958744 74.40820845 111.73120135 68 99 C64.24251732 90.53420823 63.49362543 82.30111127 63.50244141 73.15454102 C63.40193866 65.83022168 61.34767508 60.78014155 56.625 55.1875 C51.14464616 50.62053846 46.79481881 49.43219316 39.75 49.65234375 C34.09298575 50.36750606 29.89998976 52.69063652 26.125 56.9375 C22.82832384 61.68859211 21.75403575 65.30550302 21.68115234 71.07543945 C21.66128265 72.27630692 21.64141296 73.47717438 21.62094116 74.71443176 C21.60938995 76.00105209 21.59783875 77.28767242 21.5859375 78.61328125 C21.56721402 79.95136189 21.54763973 81.28943087 21.5272522 82.62748718 C21.4760493 86.13726916 21.43636064 89.64708938 21.39910889 93.15704346 C21.35899461 96.74346278 21.30793626 100.3297247 21.2578125 103.91601562 C21.16119364 110.94390101 21.07775661 117.97187692 21 125 C14.07 125 7.14 125 0 125 C0 83.75 0 42.5 0 0 Z " fill="#7CD1EA" transform="translate(0,0)"/>
<path d="M0 0 C5.94 0 11.88 0 18 0 C18.04537521 9.70191721 18.08198727 19.40376272 18.10362434 29.10576248 C18.11401456 33.61188992 18.12808565 38.11794032 18.15087891 42.62402344 C18.17277854 46.98123674 18.18460433 51.33837643 18.18975449 55.69564056 C18.19341976 57.34922187 18.20057612 59.00279963 18.21146011 60.65634918 C18.32026479 77.88840986 17.26606444 92.66144067 4.875 105.875 C-0.53050519 110.97161918 -6.10303579 114.29779479 -13 117 C-13.67417969 117.26425781 -14.34835937 117.52851562 -15.04296875 117.80078125 C-26.69235639 121.45208185 -39.90586306 119.2219418 -50.53125 113.6796875 C-61.58065495 106.75488919 -69.63910127 97.00160037 -72.625 84.14160156 C-73.2681943 80.46835911 -73.33842884 76.84678588 -73.3125 73.125 C-73.31048584 72.33851074 -73.30847168 71.55202148 -73.30639648 70.74169922 C-73.20295647 64.73722326 -72.17320101 59.60753421 -70 54 C-69.67 52.68 -69.34 51.36 -69 50 C-83.85 64.85 -98.7 79.7 -114 95 C-104.16594389 98.68777104 -99.18542252 99.04305302 -89.68359375 95.33984375 C-85.46283809 93.23253779 -82.28737546 90.3386263 -79 87 C-78.26652344 86.2678125 -77.53304687 85.535625 -76.77734375 84.78125 C-76.19082031 84.1934375 -75.60429688 83.605625 -75 83 C-74.51789063 84.12019531 -74.03578125 85.24039063 -73.5390625 86.39453125 C-72.9011953 87.86725405 -72.26316599 89.33990665 -71.625 90.8125 C-71.30789063 91.55048828 -70.99078125 92.28847656 -70.6640625 93.04882812 C-70.3546875 93.76103516 -70.0453125 94.47324219 -69.7265625 95.20703125 C-69.30238037 96.18893433 -69.30238037 96.18893433 -68.86962891 97.19067383 C-67.92527087 99.26322799 -67.92527087 99.26322799 -66 102 C-66.18645779 104.69031961 -66.79129186 105.77840253 -68.64453125 107.74609375 C-81.53580033 117.80360638 -95.02790548 120.23659382 -111 119 C-123.50076392 116.82024495 -132.568775 110.18501002 -141 101 C-138.56696874 92.12157015 -135.29163506 83.58594775 -132 75 C-131.34 75 -130.68 75 -130 75 C-129.34 76.32 -128.68 77.64 -128 79 C-116.45 67.45 -104.9 55.9 -93 44 C-100.1144883 41.15420468 -105.16097099 41.04814192 -112.3125 43.875 C-115.25847553 45.15585893 -118.13628394 46.54520603 -121 48 C-119.27502569 41.7053569 -117.1877737 35.56043318 -114.9375 29.4375 C-114.6801709 28.72271484 -114.4228418 28.00792969 -114.15771484 27.27148438 C-112.23565412 22.11782706 -112.23565412 22.11782706 -110 21 C-95.94098052 19.96550038 -83.24996105 21.84444659 -72 31 C-69.31259894 33.37283533 -66.66770378 35.77522928 -64.06640625 38.2421875 C-62.19825662 40.21598031 -62.19825662 40.21598031 -60 40 C-58.61035264 38.7895672 -57.26263792 37.53073294 -55.9375 36.25 C-45.41498843 26.66093704 -33.98561303 26.30914561 -20.39306641 26.81201172 C-12.64922333 27.42033238 -7.35632193 30.76245204 -1 35 C-0.67 23.45 -0.34 11.9 0 0 Z M-49.1875 54.3125 C-55.59218394 62.33096257 -56.11482926 69.86036247 -55 80 C-52.67653083 87.79652989 -47.74827548 93.86241405 -41.0078125 98.31640625 C-34.63890765 101.66416393 -28.05311055 101.89167011 -21 101 C-18.00132218 100.05659574 -15.58041726 98.77981047 -13 97 C-12.113125 96.401875 -11.22625 95.80375 -10.3125 95.1875 C-3.85530976 89.07934707 -1.0578604 82.80830701 0 74 C-0.16428193 64.61246113 -3.38104361 58.03886152 -9.6328125 51.21875 C-14.79202567 46.32349657 -20.50609516 44.37434695 -27.5 43.625 C-36.15546753 44.55237152 -43.27416284 47.83391738 -49.1875 54.3125 Z " fill="#5EBD6B" transform="translate(597,7)"/>
<path d="M0 0 C1.03833984 0.38285156 1.03833984 0.38285156 2.09765625 0.7734375 C13.34276892 5.64706486 21.70325235 16.0660397 27.140625 26.75 C31.66638292 38.59925709 32.02445588 53.46945966 27.328125 65.29296875 C20.30597583 79.60576102 10.95087371 89.10462408 -4.25 94.375 C-19.78086349 98.74191338 -31.87176502 95.06411749 -46 88 C-46.33 99.88 -46.66 111.76 -47 124 C-53.6 124 -60.2 124 -67 124 C-67.06798094 113.10736154 -67.12293408 102.21486574 -67.15543652 91.32206249 C-67.17104197 86.26321164 -67.19218601 81.20451442 -67.22631836 76.14575195 C-67.2590953 71.25685952 -67.27689145 66.36811415 -67.28463173 61.47912025 C-67.29014249 59.62095134 -67.30090305 57.76278978 -67.31719017 55.90468407 C-67.4658089 38.2347396 -65.16713234 23.64900959 -52.51171875 10.32421875 C-38.00060549 -3.10363877 -18.49831296 -6.98622657 0 0 Z M-41 29 C-45.76073281 36.84799591 -46.74492553 43.85869956 -46 53 C-44.14080586 60.38077673 -39.28580577 66.95505381 -33.09765625 71.3515625 C-26.17949775 75.41762606 -19.86992608 75.76363438 -12 75 C-2.76053749 72.35462316 2.96697115 65.73910758 8 57.875 C10.66990279 50.33955066 10.27756189 40.69821918 6.9375 33.5 C2.96859452 26.80733585 -2.01784448 21.55790312 -9.34375 18.66015625 C-22.37398801 15.42175886 -32.75723229 18.62331781 -41 29 Z " fill="#5EBD6B" transform="translate(348,31)"/>
<path d="M0 0 C7.59 0 15.18 0 23 0 C17.94753823 14.60864111 12.64424093 29.10074442 7.1875 43.5625 C5.59925519 47.78217417 4.01257166 52.00243498 2.42578125 56.22265625 C2.04147949 57.24408722 1.65717773 58.26551819 1.26123047 59.31790161 C-3.20563676 71.19480043 -7.61228839 83.09364689 -12 95 C-18.93 95 -25.86 95 -33 95 C-34.24716797 91.22369141 -34.24716797 91.22369141 -35.51953125 87.37109375 C-36.33300674 84.91503922 -37.14753244 82.45933532 -37.9621582 80.00366211 C-38.52477945 78.3057833 -39.08631993 76.60754595 -39.64672852 74.90893555 C-40.45560691 72.45785425 -41.2684512 70.00811787 -42.08203125 67.55859375 C-42.32903275 66.80726669 -42.57603424 66.05593964 -42.83052063 65.28184509 C-44.34301031 60.74342415 -46.05711071 56.37213088 -48 52 C-48.38857178 53.23153809 -48.77714355 54.46307617 -49.17749023 55.73193359 C-50.61640441 60.29089582 -52.05750167 64.84916547 -53.49926758 69.40722656 C-54.12356406 71.38197233 -54.74726432 73.35690668 -55.37036133 75.33203125 C-56.26487933 78.16716228 -57.1615229 81.00161335 -58.05859375 83.8359375 C-58.3377916 84.72243988 -58.61698944 85.60894226 -58.90464783 86.52230835 C-59.16484207 87.34300812 -59.42503632 88.16370789 -59.69311523 89.00927734 C-59.92183823 89.73319672 -60.15056122 90.45711609 -60.38621521 91.20297241 C-61 93 -61 93 -62 95 C-68.6 95 -75.2 95 -82 95 C-83.03125 92.628125 -84.0625 90.25625 -85.125 87.8125 C-85.4564502 87.07491455 -85.78790039 86.3373291 -86.12939453 85.57739258 C-87.40041382 82.52752291 -88.14216802 80.57033487 -87.33203125 77.3203125 C-86.89246094 76.55460937 -86.45289063 75.78890625 -86 75 C-85.60941406 74.20722656 -85.21882813 73.41445312 -84.81640625 72.59765625 C-84.40261719 71.76105469 -83.98882812 70.92445312 -83.5625 70.0625 C-80.58140819 63.60640767 -79.25132145 56.96874143 -78 50 C-75.02873292 52.71077243 -74.11756266 55.13151386 -73 59 C-68.92059917 49.57178212 -65.93447801 39.7733929 -62.8125 30 C-61.99499458 27.44815167 -61.17646815 24.89664062 -60.35612488 22.34570312 C-59.8490382 20.76815787 -59.34369283 19.19005158 -58.84028625 17.61132812 C-57.11150807 12.22301614 -57.11150807 12.22301614 -56 10 C-50.39 10 -44.78 10 -39 10 C-37.36279874 14.88843583 -35.72659925 19.77718592 -34.09277344 24.66674805 C-33.53864364 26.32416117 -32.98397184 27.9813932 -32.42871094 29.63842773 C-29.16141504 39.39018542 -25.95784116 49.14897835 -23 59 C-17.84248863 47.07150921 -13.31728333 34.88967505 -8.6875 22.75 C-7.84326363 20.54030166 -6.99886399 18.3306657 -6.15429688 16.12109375 C-4.10067663 10.74822665 -2.05041723 5.3740946 0 0 Z " fill="#5EBD6B" transform="translate(459,30)"/>
<path d="M0 0 C5.15390485 4.40214313 5.15390485 4.40214313 7.22265625 6.81640625 C7.22265625 10.81640625 7.22265625 10.81640625 5.36242676 13.15765381 C4.05670715 14.45004974 4.05670715 14.45004974 2.72460938 15.76855469 C2.24668442 16.24706375 1.76875946 16.72557281 1.27635193 17.21858215 C-0.30516666 18.79731479 -1.90037864 20.36140998 -3.49609375 21.92578125 C-4.59555505 23.01778199 -5.69413631 24.11066945 -6.79187012 25.20440674 C-9.683134 28.0803998 -12.58620829 30.94417936 -15.49188232 33.80560303 C-18.4549218 36.7277213 -21.40666684 39.66119915 -24.359375 42.59375 C-30.15435321 48.34583175 -35.96185394 54.0850634 -41.77734375 59.81640625 C-34.35541708 63.72322959 -27.04422256 64.35584579 -18.890625 61.97265625 C-12.77499448 59.20048682 -8.67003963 55.2229283 -4.77734375 49.81640625 C-4.13796875 48.92953125 -3.49859375 48.04265625 -2.83984375 47.12890625 C-0.81801 40.8255422 -1.04913614 33.69715708 -2.6640625 27.30859375 C-2.78785038 23.49251218 -2.65865197 23.15622005 -0.25 20.5078125 C0.86696806 19.44371867 2.00465719 18.40102917 3.16015625 17.37890625 C3.73701172 16.83814453 4.31386719 16.29738281 4.90820312 15.74023438 C6.32895707 14.41341458 7.77360078 13.11225762 9.22265625 11.81640625 C15.10112709 16.97266496 16.88873543 25.7157657 17.37890625 33.203125 C17.80723588 45.71391957 14.30716705 57.26637888 6.40625 67.0703125 C-2.3016402 76.34113702 -12.59701833 81.06868744 -25.23046875 82.09765625 C-38.08570447 82.43744222 -48.58633559 79.87403106 -58.77734375 71.81640625 C-61.02185643 69.5805764 -62.86192322 67.35304425 -64.77734375 64.81640625 C-64.28363281 63.8521875 -63.78992188 62.88796875 -63.28125 61.89453125 C-62.63390138 60.61859773 -61.98677776 59.34255004 -61.33984375 58.06640625 C-61.01435547 57.4321875 -60.68886719 56.79796875 -60.35351562 56.14453125 C-58.47687985 52.48506783 -58.47687985 52.48506783 -57.3671875 48.55078125 C-56.77734375 46.81640625 -56.77734375 46.81640625 -54.72216797 45.67749023 C-50.61526101 43.08198769 -47.46925057 39.75403412 -44.0703125 36.3046875 C-43.34491776 35.57646286 -42.61952301 34.84823822 -41.87214661 34.09794617 C-39.56496089 31.77959923 -37.26484159 29.45438217 -34.96484375 27.12890625 C-33.39824808 25.55227556 -31.83119584 23.97609839 -30.26367188 22.40039062 C-26.42958979 18.544302 -22.60128012 14.68255481 -18.77734375 10.81640625 C-24.84744083 7.51815567 -32.67635761 7.62350934 -39.26171875 9.5390625 C-41.25344714 10.49246737 -42.98618107 11.52743872 -44.77734375 12.81640625 C-45.3290625 13.2134375 -45.88078125 13.61046875 -46.44921875 14.01953125 C-49.83091211 16.66461814 -52.0466848 19.40308256 -54.77734375 22.81640625 C-54.77734375 14.23640625 -54.77734375 5.65640625 -54.77734375 -3.18359375 C-36.13326271 -12.50563427 -17.0360945 -13.39406023 0 0 Z " fill="#7CD1EA" transform="translate(671.77734375,43.18359375)"/>
<path d="M0 0 C10.13444083 3.58200064 17.31989639 10.10115528 25.0625 17.375 C20.92923902 24.86049417 15.33258877 30.49307799 9.29296875 36.4375 C8.24570567 37.47915694 7.19911103 38.5214863 6.15315247 39.56445312 C3.41929995 42.28693698 0.67655594 45.0002838 -2.0682373 47.71173096 C-4.87586338 50.48848273 -7.67485042 53.27391382 -10.47460938 56.05859375 C-15.95389258 61.5058539 -21.44261266 66.94347597 -26.9375 72.375 C-25.68577329 72.87141677 -24.4313177 73.36095552 -23.17578125 73.84765625 C-22.12837769 74.25769897 -22.12837769 74.25769897 -21.05981445 74.67602539 C-13.6920331 77.10257066 -6.62303941 74.71290396 0.0625 71.375 C2.98904914 69.26925262 5.53632386 66.94055973 8.0625 64.375 C8.79597656 63.6428125 9.52945313 62.910625 10.28515625 62.15625 C10.87167969 61.5684375 11.45820312 60.980625 12.0625 60.375 C12.54460937 61.49519531 13.02671875 62.61539063 13.5234375 63.76953125 C14.1613047 65.24225405 14.79933401 66.71490665 15.4375 68.1875 C15.75460937 68.92548828 16.07171875 69.66347656 16.3984375 70.42382812 C16.7078125 71.13603516 17.0171875 71.84824219 17.3359375 72.58203125 C17.76011963 73.56393433 17.76011963 73.56393433 18.19287109 74.56567383 C19.13722913 76.63822799 19.13722913 76.63822799 21.0625 79.375 C20.87604221 82.06531961 20.27120814 83.15340253 18.41796875 85.12109375 C5.52669967 95.17860638 -7.96540548 97.61159382 -23.9375 96.375 C-36.43826392 94.19524495 -45.506275 87.56001002 -53.9375 78.375 C-51.50446874 69.49657015 -48.22913506 60.96094775 -44.9375 52.375 C-44.2775 52.375 -43.6175 52.375 -42.9375 52.375 C-42.2775 53.695 -41.6175 55.015 -40.9375 56.375 C-29.3875 44.825 -17.8375 33.275 -5.9375 21.375 C-13.0519883 18.52920468 -18.09847099 18.42314192 -25.25 21.25 C-28.19597553 22.53085893 -31.07378394 23.92020603 -33.9375 25.375 C-32.21252569 19.0803569 -30.1252737 12.93543318 -27.875 6.8125 C-27.6176709 6.09771484 -27.3603418 5.38292969 -27.09521484 4.64648438 C-23.33784882 -5.42821135 -8.91599083 -2.5398981 0 0 Z " fill="#7CD0E9" transform="translate(509.9375,29.625)"/>
<path d="M0 0 C4.02190812 2.72225222 8.03286681 5.53786976 11.12109375 9.31640625 C11.04425465 13.77307416 7.69145426 18.26165796 5.6484375 22.18359375 C4.1082803 25.18657809 2.72203699 27.97783269 2.12109375 31.31640625 C1.46109375 31.31640625 0.80109375 31.31640625 0.12109375 31.31640625 C-0.76247832 29.9731379 -1.5851855 28.58964687 -2.37890625 27.19140625 C-6.18741178 21.25874653 -11.59767042 17.35951752 -18.4921875 15.6796875 C-26.61488521 14.4433358 -34.18254524 16.08171193 -41 20.77734375 C-42.71256919 22.22842388 -44.30618569 23.71567285 -45.87890625 25.31640625 C-46.60207031 26.03828125 -47.32523438 26.76015625 -48.0703125 27.50390625 C-48.66714844 28.10203125 -49.26398438 28.70015625 -49.87890625 29.31640625 C-50.1934375 28.45917969 -50.50796875 27.60195313 -50.83203125 26.71875 C-53.57011712 19.23300885 -53.57011712 19.23300885 -57.25390625 12.19140625 C-58.05828125 10.76828125 -58.05828125 10.76828125 -58.87890625 9.31640625 C-57.17678151 4.21003202 -52.34816778 2.01517628 -47.87890625 -0.68359375 C-32.91364816 -7.81497563 -14.61384721 -8.54622544 0 0 Z " fill="#7CD1EA" transform="translate(277.87890625,33.68359375)"/>
<path d="M0 0 C3.21129998 2.31992811 5.70037781 4.7554498 7.9375 8.0625 C7.53917969 8.66835938 7.14085937 9.27421875 6.73046875 9.8984375 C3.00910481 15.78380626 0.57830882 21.29776188 -1.0625 28.0625 C-1.7225 28.0625 -2.3825 28.0625 -3.0625 28.0625 C-3.96579218 26.86896968 -4.81031482 25.63068286 -5.625 24.375 C-9.62827546 18.92126242 -14.13518433 15.98691202 -20.734375 14.43359375 C-28.8636296 13.34280394 -36.06261492 14.85512875 -42.9375 19.375 C-46.129125 21.83818353 -47.93445516 24.67339156 -50.0625 28.0625 C-50.7225 28.0625 -51.3825 28.0625 -52.0625 28.0625 C-52.37703125 27.19367187 -52.6915625 26.32484375 -53.015625 25.4296875 C-56.20416119 16.79729565 -56.20416119 16.79729565 -61.0625 9.0625 C-57.47757727 1.12445681 -50.6126285 -1.87076097 -42.83203125 -4.95703125 C-28.98789479 -9.85812893 -12.33802696 -7.75132538 0 0 Z " fill="#7CD1EA" transform="translate(139.0625,34.9375)"/>
<path d="M0 0 C0.66 0 1.32 0 2 0 C3.10677865 1.79477619 4.13439354 3.63858135 5.125 5.5 C8.77415363 11.95267876 12.9827609 17.37091682 19.23828125 21.46484375 C19.81964844 21.97144531 20.40101563 22.47804688 21 23 C21 24.32 21 25.64 21 27 C14.07 27 7.14 27 0 27 C0 18.09 0 9.18 0 0 Z " fill="#7CD1EA" transform="translate(204,98)"/>
<path d="M0 0 C3.3 0 6.6 0 10 0 C10.99 3.3 11.98 6.6 13 10 C9.66074673 8.33037336 7.15775675 6.71334229 4.25 4.4375 C3.45078125 3.81746094 2.6515625 3.19742188 1.828125 2.55859375 C1.22484375 2.04425781 0.6215625 1.52992187 0 1 C0 0.67 0 0.34 0 0 Z " fill="#5EBD6B" transform="translate(354,30)"/>
<path d="M0 0 C0.66 0.66 1.32 1.32 2 2 C0.68 2.99 -0.64 3.98 -2 5 C-1.125 1.125 -1.125 1.125 0 0 Z " fill="#488851" transform="translate(534,48)"/>
</svg>
